<svg width="32" height="32" viewBox="0 0 75 40" fill="none" xmlns="http://www.w3.org/2000/svg">
<path d="M51.027 36.4346L51.405 35.1054C51.8639 33.532 51.6929 32.0671 50.928 31.0001C50.2261 30.0144 49.0562 29.4358 47.6343 29.3635L20.7268 29.0199C20.5469 29.0108 20.3939 28.9294 20.3039 28.7937C20.2139 28.6581 20.1869 28.4772 20.25 28.3054C20.3399 28.0432 20.6009 27.8353 20.8709 27.8262L48.0212 27.4826C51.243 27.3379 54.7257 24.7066 55.9496 21.5055L57.4974 17.4364C57.5424 17.3279 57.5604 17.2104 57.5604 17.0928C57.5604 17.0295 57.5514 16.9662 57.5424 16.9029C55.7966 8.95458 48.7322 3.01367 40.3 3.01367C32.5248 3.01367 25.9194 8.05937 23.5526 15.0673C22.0227 13.9189 20.0699 13.304 17.9641 13.5119C14.2295 13.8827 11.2328 16.9029 10.8638 20.6555C10.7648 21.6321 10.8458 22.5634 11.0707 23.4496C4.97834 23.6305 0.0917969 28.649 0.0917969 34.807C0.0917969 35.3676 0.136793 35.9101 0.208786 36.4527C0.244782 36.715 0.469762 36.9048 0.730737 36.9048L50.397 36.9139C50.4061 36.9139 50.4061 36.9139 50.4151 36.9139C50.6941 36.9048 50.946 36.715 51.027 36.4346Z" fill="#F6821F"/>
<path d="M59.9905 17.7363C59.7386 17.7363 59.4955 17.7454 59.2436 17.7544C59.1986 17.7544 59.1626 17.7634 59.1266 17.7815C59.0006 17.8267 58.8926 17.9352 58.8567 18.0709L57.7948 21.7421C57.3357 23.3155 57.5068 24.7803 58.2717 25.8473C58.9736 26.833 60.1435 27.4117 61.5654 27.4841L67.2979 27.8277C67.4688 27.8367 67.6129 27.9181 67.7028 28.0537C67.8018 28.1894 67.8198 28.3702 67.7658 28.5421C67.6758 28.8042 67.4148 29.0122 67.1449 29.0213L61.1874 29.3649C57.9567 29.5186 54.465 32.1409 53.2411 35.342L52.8092 36.4722C52.7282 36.6803 52.8812 36.8973 53.0881 36.9063C53.0972 36.9063 53.0972 36.9063 53.1062 36.9063H73.6153C73.8583 36.9063 74.0742 36.7435 74.1463 36.5085C74.5062 35.2334 74.6952 33.8952 74.6952 32.5027C74.6952 24.3554 68.1078 17.7363 59.9905 17.7363Z" fill="#FBAD41"/>
</svg>
